<svg xmlns="http://www.w3.org/2000/svg" viewBox="0 0 32 32">
  <defs>
    <linearGradient id="grad" x1="0%" y1="0%" x2="100%" y2="100%">
      <stop offset="0%" style="stop-color:#60a5fa"/>
      <stop offset="50%" style="stop-color:#a78bfa"/>
      <stop offset="100%" style="stop-color:#f472b6"/>
    </linearGradient>
  </defs>
  <!-- Background rounded square -->
  <rect x="2" y="2" width="28" height="28" rx="6" fill="#0f172a"/>
  <!-- Stylized "S" for SmartGIF -->
  <path d="M22 10c0-2.2-1.8-4-4-4h-6c-1.1 0-2 .9-2 2s.9 2 2 2h6v4h-6c-2.2 0-4 1.8-4 4v2c0 2.2 1.8 4 4 4h6c1.1 0 2-.9 2-2s-.9-2-2-2h-6v-4h6c2.2 0 4-1.8 4-4v-2z" fill="url(#grad)"/>
  <!-- Play button accent (represents animation) -->
  <circle cx="24" cy="24" r="5" fill="#1e293b"/>
  <polygon points="22.5,22 22.5,26 26,24" fill="url(#grad)"/>
</svg>
